<svg xmlns="http://www.w3.org/2000/svg" width="512" height="512" viewBox="0 0 512 512" version="1.1"><path d="M 2 2 C 0.277 3.723, 0 5.333, 0 13.622 C -0 39.013, 7.820 65.407, 21.295 85.500 C 30.405 99.083, 38.690 107.735, 59.270 125.155 L 62.040 127.500 49.770 140 C 34.897 155.152, 26.124 167.281, 17.583 184.500 C 6.075 207.699, 1.158 226.616, 0.298 251 C -0.454 272.322, 2.108 288.309, 9.728 309.844 C 13.357 320.101, 15.773 323.424, 19.891 323.822 C 23.988 324.217, 28.004 320.872, 27.991 317.076 C 27.987 315.659, 26.195 309.437, 24.010 303.249 C 17.609 285.122, 15.655 274.067, 15.655 256 C 15.655 238.275, 17.554 227.221, 23.568 209.943 C 31.865 186.105, 42.774 169.049, 61.922 149.974 C 77.248 134.706, 87.906 126.965, 111.145 114.223 C 140.199 98.293, 157.701 84.648, 170.435 68 C 181.129 54.019, 185.687 41.856, 188.515 19.750 L 189.123 15 201.659 15 L 214.196 15 213.541 21.250 C 210.234 52.767, 199.656 75.345, 178.024 97.060 C 163.386 111.753, 147.440 123.181, 123 136.494 C 116.125 140.239, 107.575 145.236, 104 147.598 C 67.607 171.642, 45.600 206.018, 40.940 246.100 C 38.135 270.223, 46.060 299.155, 62.140 323.502 C 69.604 334.804, 83.453 349.577, 93.731 357.201 L 99.962 361.823 88.616 368.411 C 82.376 372.035, 76.727 375, 76.063 375 C 74.659 375, 52.543 353.038, 45.936 345.083 C 42.168 340.547, 40.905 339.667, 38.163 339.667 C 33.988 339.667, 30.667 342.874, 30.667 346.908 C 30.667 350.959, 38.915 361.622, 51.924 374.388 C 57.466 379.826, 62 384.368, 62 384.481 C 62 384.595, 57.420 388.470, 51.822 393.094 C 18.235 420.833, -0 457.606, 0 497.599 C 0 512.843, -1.613 512, 27.545 512 L 51.091 512 53.545 509.545 C 55.668 507.423, 56.001 506.171, 56.009 500.295 C 56.013 496.558, 56.301 491.137, 56.648 488.250 L 57.279 483 114.639 483 C 146.188 483, 172.034 483.337, 172.076 483.750 C 172.118 484.163, 172.478 489.846, 172.877 496.380 C 173.890 512.972, 172.129 512, 201.177 512 C 214.237 512, 224.920 511.578, 225.961 511.021 C 229.158 509.310, 229.809 505.145, 228.946 491.945 C 226.273 451.104, 209.519 419.423, 176.107 392.028 L 166.994 384.556 177.956 373.528 C 190.736 360.671, 193.092 357.818, 201.667 344.825 C 224.532 310.176, 233.896 267.933, 227.053 230.311 C 224.336 215.374, 217.834 195.685, 214.346 191.830 C 210.552 187.637, 202 191.264, 202 197.064 C 202 198.404, 203.564 203.875, 205.476 209.222 C 212.581 229.100, 215.390 251.889, 213.042 270.603 C 208.341 308.065, 189.610 343.370, 161 368.695 C 148.861 379.441, 138.235 386.703, 119.498 397.060 C 94.118 411.090, 83.932 418.158, 70.664 430.947 C 52.722 448.243, 42.889 467.608, 41.317 488.750 L 40.703 497 27.772 497 L 14.841 497 15.508 490.250 C 17.428 470.832, 23.113 452.903, 31.676 439.264 C 46.417 415.785, 63.772 400.333, 96.500 381.551 C 136.264 358.730, 153.014 344.809, 167.546 322.500 C 181.551 300.999, 188.288 279.402, 188.288 256 C 188.288 226.507, 176.774 197.778, 155.092 173.173 C 148.981 166.238, 143.197 160.970, 132.113 152.239 L 129.725 150.359 141.393 143.584 L 153.060 136.808 156.280 139.314 C 162.464 144.125, 174.633 156.563, 180.923 164.500 C 184.409 168.900, 187.765 172.831, 188.381 173.235 C 192.440 175.899, 200 171.590, 200 166.611 C 200 163.045, 190.868 151.347, 178.025 138.460 L 167.023 127.421 176.122 119.960 C 209.292 92.763, 226.289 60.878, 228.892 20.971 C 229.814 6.831, 229.211 2.718, 225.961 0.979 C 224.920 0.422, 214.237 0, 201.177 0 C 172.129 0, 173.890 -0.972, 172.877 15.620 C 172.478 22.154, 172.118 27.837, 172.076 28.250 C 172.034 28.663, 146.188 29, 114.639 29 L 57.279 29 56.648 23.750 C 56.301 20.862, 56.013 15.442, 56.009 11.705 C 56.001 5.829, 55.668 4.577, 53.545 2.455 L 51.091 0 27.545 0 C 5.333 0, 3.887 0.113, 2 2 M 15.459 21.250 C 19.526 60.015, 34.642 86.133, 67.899 111.861 L 75.692 117.889 81.096 114.241 C 84.068 112.235, 89.290 108.960, 92.700 106.963 L 98.901 103.332 90.200 97.285 C 73.134 85.423, 58.108 69.366, 50.631 55 C 45.009 44.199, 41 29.345, 41 19.316 L 41 15 27.902 15 L 14.804 15 15.459 21.250 M 63 45.872 C 63 47.926, 73.257 62.206, 78.639 67.645 C 86.287 75.373, 91.728 79.716, 104.126 87.989 L 114.313 94.787 120.821 90.804 C 135.295 81.944, 148.463 70.972, 156.025 61.469 C 160.782 55.490, 165.963 47.317, 165.988 45.750 C 165.995 45.337, 142.825 45, 114.500 45 C 85.887 45, 63 45.387, 63 45.872 M 376.520 138.115 C 366.859 139.522, 355.623 142.745, 346.250 146.797 C 336.365 151.072, 321.446 160.298, 319.975 163.047 C 318.350 166.083, 318.857 170.560, 321.050 172.545 C 324.288 175.476, 328.836 174.861, 334.585 170.716 C 342.079 165.312, 354.335 159.469, 364.108 156.639 C 401.629 145.776, 440.837 156.260, 467.703 184.338 C 490.369 208.027, 500.371 238.618, 495.918 270.636 C 492.980 291.756, 483.259 311.405, 467.703 327.662 C 436.532 360.239, 388.846 368.805, 348.500 349.074 C 318.239 334.275, 297.745 307.608, 291.554 274.973 C 290.683 270.382, 289.265 265.845, 288.401 264.891 C 287.538 263.937, 283.495 261.690, 279.416 259.898 C 275.337 258.105, 272 256.351, 272 256 C 272 255.649, 275.337 253.895, 279.416 252.102 C 283.495 250.310, 287.538 248.063, 288.401 247.109 C 289.265 246.155, 290.679 241.639, 291.546 237.073 C 293.680 225.822, 298.109 213.971, 304.052 203.605 C 306.774 198.859, 309 193.836, 309 192.443 C 309 191.049, 307.845 188.754, 306.434 187.343 C 303.204 184.114, 298.578 184.696, 295.236 188.752 C 289.222 196.050, 279.793 218.041, 277.086 231.082 L 275.928 236.664 262.056 243.402 C 250.612 248.961, 247.972 250.653, 246.971 253.070 C 246.019 255.367, 246.019 256.633, 246.971 258.930 C 247.971 261.345, 250.601 263.034, 261.944 268.544 L 275.704 275.227 278.318 285.790 C 286.417 318.523, 311.367 348.725, 342.464 363.442 C 409.887 395.349, 489.085 358.126, 508.735 285.294 C 511.167 276.282, 511.378 273.943, 511.378 256 C 511.378 238.057, 511.167 235.718, 508.735 226.706 C 496.109 179.906, 458.053 145.537, 411.004 138.445 C 400.648 136.883, 385.941 136.743, 376.520 138.115 M 105.926 165.133 C 89.048 177.414, 75.085 194.108, 66.456 212.324 C 62.358 220.975, 57.896 235.514, 56.657 244.250 L 56.126 248 114.544 248 L 172.962 248 172.342 243.250 C 171.482 236.656, 167.381 222.630, 164.301 215.750 L 161.727 210 130.863 210 C 101.333 210, 99.914 209.914, 98 208 C 96.762 206.762, 96 204.667, 96 202.500 C 96 200.333, 96.762 198.238, 98 197 C 99.897 195.103, 101.333 195, 126 195 C 140.300 195, 152 194.619, 152 194.153 C 152 192.579, 139.403 178.537, 133.430 173.453 C 126.727 167.748, 120.719 163.088, 116.926 160.653 C 114.389 159.024, 114.234 159.088, 105.926 165.133 M 386.500 182.160 C 375.727 188.080, 355.237 200.563, 354.250 201.807 C 353.366 202.921, 353 208.145, 353 219.661 L 353 235.940 338.445 244.549 C 328.241 250.585, 323.608 253.902, 322.945 255.645 C 321.500 259.445, 321.767 293.007, 323.265 295.821 C 323.961 297.129, 330.608 301.731, 338.500 306.367 L 352.500 314.593 353 321.378 C 353.541 328.716, 355.145 331, 359.757 331 C 365.187 331, 368 326.754, 368 318.556 L 368 314.411 379.125 307.956 C 385.244 304.405, 390.574 301.589, 390.968 301.698 C 391.363 301.806, 397.479 305.325, 404.560 309.516 C 411.640 313.707, 418.574 317.355, 419.967 317.622 C 421.884 317.989, 426.674 315.655, 439.663 308.023 C 454.091 299.546, 456.999 297.442, 457.913 294.820 C 459.334 290.744, 459.333 260.255, 457.912 256.178 C 457.014 253.602, 454.303 251.560, 442.383 244.481 L 427.941 235.905 428.220 223.325 L 428.500 210.744 434.992 207.077 C 442.519 202.825, 444.406 199.596, 441.936 195.195 C 439.299 190.497, 435.871 190.141, 428.456 193.798 C 424.884 195.559, 421.483 197, 420.898 197 C 420.313 197, 413.695 193.400, 406.193 189 C 392.456 180.944, 390.162 180.147, 386.500 182.160 M 379.225 203.765 L 368 210.465 368.017 223.482 L 368.034 236.500 378.890 242.750 C 384.861 246.188, 390.141 248.999, 390.623 248.997 C 391.105 248.996, 396.225 246.159, 402 242.693 L 412.500 236.392 412.777 223.419 L 413.055 210.445 403.777 205.057 C 398.675 202.094, 393.589 199.083, 392.475 198.367 C 390.669 197.205, 389.240 197.787, 379.225 203.765 M 348.273 255.851 L 337.047 262.500 337.273 275.479 L 337.500 288.459 348.817 295.109 L 360.135 301.759 371.541 295.130 L 382.947 288.500 382.964 275.500 L 382.981 262.500 371.857 256 C 365.739 252.425, 360.456 249.433, 360.117 249.351 C 359.778 249.270, 354.448 252.195, 348.273 255.851 M 409.266 255.872 L 398.032 262.500 398.033 275.500 L 398.033 288.500 409.417 295.126 L 420.801 301.752 432.151 295.040 L 443.500 288.328 443.500 275.498 L 443.500 262.668 437.500 259.025 C 434.200 257.021, 429.025 254.001, 426 252.313 L 420.500 249.243 409.266 255.872 M 56.671 267.750 C 57.747 275.151, 61.215 287.631, 64.174 294.750 L 67.187 302 97.512 302 C 114.190 302, 128.598 302.292, 129.529 302.650 C 133.981 304.358, 134.282 313.708, 129.961 316.021 C 128.904 316.586, 117.330 317, 102.566 317 C 88.505 317, 77 317.287, 77 317.639 C 77 317.990, 79.565 321.412, 82.699 325.243 C 89.072 333.033, 99.875 342.804, 108.868 348.910 L 114.833 352.961 121.166 348.329 C 150.213 327.084, 167.527 300.009, 172.375 268.250 L 173.024 264 114.575 264 L 56.126 264 56.671 267.750 M 152.382 395.018 C 151.874 395.526, 146.664 398.821, 140.804 402.340 L 130.148 408.740 138.814 414.620 C 151.142 422.986, 166.964 438.563, 174.037 449.300 C 182.414 462.015, 186.013 472.693, 188.515 492.250 L 189.123 497 201.678 497 L 214.233 497 213.529 490.250 C 209.951 455.950, 196.887 430.778, 170.911 408.136 C 158.885 397.654, 153.534 393.866, 152.382 395.018 M 104.144 423.999 C 91.728 432.284, 86.290 436.625, 78.639 444.355 C 73.257 449.794, 63 464.074, 63 466.128 C 63 466.613, 85.887 467, 114.500 467 C 142.825 467, 166 466.757, 166 466.460 C 166 464.747, 161.297 457.246, 156.204 450.838 C 148.705 441.401, 135.701 430.510, 120.924 421.292 L 114.349 417.189 104.144 423.999" stroke="none" fill="#050505" fill-rule="evenodd"/><path d="M 15.459 21.250 C 19.526 60.015, 34.642 86.133, 67.899 111.861 L 75.692 117.889 81.096 114.241 C 84.068 112.235, 89.290 108.960, 92.700 106.963 L 98.901 103.332 90.200 97.285 C 73.134 85.423, 58.108 69.366, 50.631 55 C 45.009 44.199, 41 29.345, 41 19.316 L 41 15 27.902 15 L 14.804 15 15.459 21.250 M 188.515 19.750 C 185.687 41.856, 181.129 54.019, 170.435 68 C 157.701 84.648, 140.199 98.293, 111.145 114.223 C 87.906 126.965, 77.248 134.706, 61.922 149.974 C 42.774 169.049, 31.865 186.105, 23.568 209.943 C 17.554 227.221, 15.655 238.275, 15.655 256 C 15.655 274.067, 17.609 285.122, 24.010 303.249 C 28.527 316.042, 28.836 318.933, 25.965 321.532 C 23.603 323.669, 23.706 324.057, 29.183 333.674 C 32.952 340.291, 33.453 340.778, 35.635 339.949 C 39.425 338.508, 42.320 340.326, 48.741 348.179 C 55.498 356.444, 74.468 375, 76.160 375 C 76.770 375, 82.376 372.035, 88.616 368.411 L 99.962 361.823 93.731 357.201 C 83.453 349.577, 69.604 334.804, 62.140 323.502 C 46.060 299.155, 38.135 270.223, 40.940 246.100 C 45.600 206.018, 67.607 171.642, 104 147.598 C 107.575 145.236, 116.125 140.239, 123 136.494 C 147.440 123.181, 163.386 111.753, 178.024 97.060 C 199.656 75.345, 210.234 52.767, 213.541 21.250 L 214.196 15 201.659 15 L 189.123 15 188.515 19.750 M 141.116 143.707 L 129.732 150.364 132.116 152.242 C 143.195 160.967, 148.982 166.239, 155.092 173.173 C 176.774 197.778, 188.288 226.507, 188.288 256 C 188.288 279.402, 181.551 300.999, 167.546 322.500 C 153.014 344.809, 136.264 358.730, 96.500 381.551 C 63.772 400.333, 46.417 415.785, 31.676 439.264 C 23.113 452.903, 17.428 470.832, 15.508 490.250 L 14.841 497 27.772 497 L 40.703 497 41.317 488.750 C 42.889 467.608, 52.722 448.243, 70.664 430.947 C 83.932 418.158, 94.118 411.090, 119.498 397.060 C 138.235 386.703, 148.861 379.441, 161 368.695 C 189.610 343.370, 208.341 308.065, 213.042 270.603 C 215.390 251.889, 212.581 229.100, 205.476 209.222 C 201.434 197.916, 201.234 195.444, 204.112 192.381 L 206.224 190.132 201.801 181.816 C 197.395 173.532, 197.364 173.501, 193.731 173.823 C 188.924 174.250, 188.271 173.786, 181.301 165 C 178.028 160.875, 173.584 155.675, 171.425 153.445 C 165.968 147.806, 153.934 136.995, 153.149 137.025 C 152.792 137.038, 147.377 140.045, 141.116 143.707 M 380.500 153.127 C 365.256 155.031, 346.468 162.166, 334.999 170.405 C 328.681 174.944, 326.623 175.463, 322.743 173.493 L 319.500 171.847 312.790 179.061 C 306.497 185.827, 306.170 186.405, 307.540 188.360 C 309.908 191.742, 309.280 194.488, 304.052 203.605 C 298.109 213.971, 293.680 225.822, 291.546 237.073 C 290.679 241.639, 289.265 246.155, 288.401 247.109 C 287.538 248.063, 283.495 250.310, 279.416 252.102 C 275.337 253.895, 272 255.649, 272 256 C 272 256.351, 275.337 258.105, 279.416 259.898 C 283.495 261.690, 287.538 263.937, 288.401 264.891 C 289.265 265.845, 290.683 270.382, 291.554 274.973 C 297.745 307.608, 318.239 334.275, 348.500 349.074 C 388.846 368.805, 436.532 360.239, 467.703 327.662 C 490.369 303.973, 500.371 273.382, 495.918 241.364 C 492.980 220.244, 483.259 200.595, 467.703 184.338 C 450.657 166.523, 429.047 155.821, 404.500 153.037 C 394.272 151.877, 390.392 151.892, 380.500 153.127 M 386.500 182.160 C 375.727 188.080, 355.237 200.563, 354.250 201.807 C 353.366 202.921, 353 208.145, 353 219.661 L 353 235.940 338.445 244.549 C 328.241 250.585, 323.608 253.902, 322.945 255.645 C 321.500 259.445, 321.767 293.007, 323.265 295.821 C 323.961 297.129, 330.608 301.731, 338.500 306.367 L 352.500 314.593 353 321.378 C 353.541 328.716, 355.145 331, 359.757 331 C 365.187 331, 368 326.754, 368 318.556 L 368 314.411 379.125 307.956 C 385.244 304.405, 390.574 301.589, 390.968 301.698 C 391.363 301.806, 397.479 305.325, 404.560 309.516 C 411.640 313.707, 418.574 317.355, 419.967 317.622 C 421.884 317.989, 426.674 315.655, 439.663 308.023 C 454.091 299.546, 456.999 297.442, 457.913 294.820 C 459.334 290.744, 459.333 260.255, 457.912 256.178 C 457.014 253.602, 454.303 251.560, 442.383 244.481 L 427.941 235.905 428.220 223.325 L 428.500 210.744 434.992 207.077 C 442.519 202.825, 444.406 199.596, 441.936 195.195 C 439.299 190.497, 435.871 190.141, 428.456 193.798 C 424.884 195.559, 421.483 197, 420.898 197 C 420.313 197, 413.695 193.400, 406.193 189 C 392.456 180.944, 390.162 180.147, 386.500 182.160 M 379.225 203.765 L 368 210.465 368.017 223.482 L 368.034 236.500 378.890 242.750 C 384.861 246.188, 390.141 248.999, 390.623 248.997 C 391.105 248.996, 396.225 246.159, 402 242.693 L 412.500 236.392 412.777 223.419 L 413.055 210.445 403.777 205.057 C 398.675 202.094, 393.589 199.083, 392.475 198.367 C 390.669 197.205, 389.240 197.787, 379.225 203.765 M 348.273 255.851 L 337.047 262.500 337.273 275.479 L 337.500 288.459 348.817 295.109 L 360.135 301.759 371.541 295.130 L 382.947 288.500 382.964 275.500 L 382.981 262.500 371.857 256 C 365.739 252.425, 360.456 249.433, 360.117 249.351 C 359.778 249.270, 354.448 252.195, 348.273 255.851 M 409.266 255.872 L 398.032 262.500 398.033 275.500 L 398.033 288.500 409.417 295.126 L 420.801 301.752 432.151 295.040 L 443.500 288.328 443.500 275.498 L 443.500 262.668 437.500 259.025 C 434.200 257.021, 429.025 254.001, 426 252.313 L 420.500 249.243 409.266 255.872 M 152.382 395.018 C 151.874 395.526, 146.664 398.821, 140.804 402.340 L 130.148 408.740 138.814 414.620 C 151.142 422.986, 166.964 438.563, 174.037 449.300 C 182.414 462.015, 186.013 472.693, 188.515 492.250 L 189.123 497 201.678 497 L 214.233 497 213.529 490.250 C 209.951 455.950, 196.887 430.778, 170.911 408.136 C 158.885 397.654, 153.534 393.866, 152.382 395.018" stroke="none" fill="#d4cad1" fill-rule="evenodd"/></svg>