<svg xmlns="http://www.w3.org/2000/svg" width="512" height="512" viewBox="0 0 512 512" version="1.1"><path d="M 376.028 154.141 C 362.491 156.384, 348.115 162.169, 335.547 170.430 C 328.073 175.342, 324.785 176.012, 321.707 173.250 C 319.818 171.555, 319.542 171.732, 312.883 178.926 C 306.374 185.958, 306.097 186.450, 307.671 188.189 C 310.317 191.113, 309.635 195.057, 305.217 202.382 C 299.358 212.095, 295.168 222.725, 292.807 233.859 C 289.861 247.753, 290.128 247.350, 281.063 251.593 C 276.628 253.669, 273 255.638, 273 255.968 C 273 256.299, 276.705 258.354, 281.233 260.535 C 287.468 263.538, 289.634 265.106, 290.161 267 C 290.544 268.375, 291.964 274.277, 293.317 280.115 C 301.345 314.757, 326.891 342.390, 361.500 353.872 C 379.618 359.882, 400.488 360.541, 419 355.686 C 457.559 345.573, 487.060 314.102, 494.634 275 C 496.496 265.388, 496.498 246.631, 494.639 237 C 486.476 194.719, 454.156 162.556, 411.750 154.512 C 403.082 152.868, 384.852 152.678, 376.028 154.141 M 384.782 182.855 C 374.767 188.130, 355.247 199.998, 353.875 201.647 C 352.881 202.841, 352.362 207.886, 352 219.866 L 351.500 236.433 338.577 244.071 C 331.469 248.272, 324.832 252.724, 323.827 253.965 C 322.199 255.976, 322 258.319, 322 275.476 C 322 292.896, 322.181 294.957, 323.902 297.115 C 324.948 298.427, 331.683 302.875, 338.869 307 L 351.934 314.500 351.967 320.115 C 352.011 327.554, 354.528 331, 359.918 331 C 365.264 331, 367.376 328.307, 368 320.691 L 368.500 314.588 379 308.340 C 384.775 304.903, 389.862 302.070, 390.304 302.045 C 390.746 302.020, 397.190 305.600, 404.622 310 C 412.242 314.511, 419.276 318, 420.749 318 C 423.890 318, 455.364 299.746, 457.512 296.679 C 458.703 294.978, 459 290.738, 459 275.412 C 459 258.102, 458.818 256.041, 457.098 253.885 C 456.052 252.573, 449.317 248.125, 442.131 244 L 429.066 236.500 429.033 223.402 L 429 210.304 433.220 208.402 C 435.540 207.356, 438.690 205.447, 440.220 204.161 C 445.601 199.634, 442.814 191, 435.971 191 C 434.306 191, 430.220 192.375, 426.891 194.055 L 420.839 197.110 407.928 189.533 C 390.512 179.313, 391.154 179.499, 384.782 182.855 M 348.276 256.336 L 338.052 262.500 338.034 275.500 L 338.016 288.500 348.848 294.750 C 354.806 298.188, 359.930 301, 360.235 301 C 360.540 301, 365.787 298.043, 371.895 294.430 L 383 287.860 383 275.467 L 383 263.074 371.988 256.537 C 365.931 252.942, 360.418 250.039, 359.738 250.086 C 359.057 250.134, 353.899 252.947, 348.276 256.336" stroke="none" fill="#eff3f5" fill-rule="evenodd"/><path d="M 376.028 154.141 C 362.491 156.384, 348.115 162.169, 335.547 170.430 C 328.073 175.342, 324.785 176.012, 321.707 173.250 C 319.818 171.555, 319.542 171.732, 312.883 178.926 C 306.374 185.958, 306.097 186.450, 307.671 188.189 C 310.317 191.113, 309.635 195.057, 305.217 202.382 C 299.358 212.095, 295.168 222.725, 292.807 233.859 C 289.861 247.753, 290.128 247.350, 281.063 251.593 C 276.628 253.669, 273 255.638, 273 255.968 C 273 256.299, 276.705 258.354, 281.233 260.535 C 287.468 263.538, 289.634 265.106, 290.161 267 C 290.544 268.375, 291.964 274.277, 293.317 280.115 C 301.345 314.757, 326.891 342.390, 361.500 353.872 C 379.618 359.882, 400.488 360.541, 419 355.686 C 457.559 345.573, 487.060 314.102, 494.634 275 C 496.496 265.388, 496.498 246.631, 494.639 237 C 486.476 194.719, 454.156 162.556, 411.750 154.512 C 403.082 152.868, 384.852 152.678, 376.028 154.141 M 384.782 182.855 C 374.767 188.130, 355.247 199.998, 353.875 201.647 C 352.881 202.841, 352.362 207.886, 352 219.866 L 351.500 236.433 338.577 244.071 C 331.469 248.272, 324.832 252.724, 323.827 253.965 C 322.199 255.976, 322 258.319, 322 275.476 C 322 292.896, 322.181 294.957, 323.902 297.115 C 324.948 298.427, 331.683 302.875, 338.869 307 L 351.934 314.500 351.967 320.115 C 352.011 327.554, 354.528 331, 359.918 331 C 365.264 331, 367.376 328.307, 368 320.691 L 368.500 314.588 379 308.340 C 384.775 304.903, 389.862 302.070, 390.304 302.045 C 390.746 302.020, 397.190 305.600, 404.622 310 C 412.242 314.511, 419.276 318, 420.749 318 C 423.890 318, 455.364 299.746, 457.512 296.679 C 458.703 294.978, 459 290.738, 459 275.412 C 459 258.102, 458.818 256.041, 457.098 253.885 C 456.052 252.573, 449.317 248.125, 442.131 244 L 429.066 236.500 429.033 223.402 L 429 210.304 433.220 208.402 C 435.540 207.356, 438.690 205.447, 440.220 204.161 C 445.601 199.634, 442.814 191, 435.971 191 C 434.306 191, 430.220 192.375, 426.891 194.055 L 420.839 197.110 407.928 189.533 C 390.512 179.313, 391.154 179.499, 384.782 182.855 M 348.276 256.336 L 338.052 262.500 338.034 275.500 L 338.016 288.500 348.848 294.750 C 354.806 298.188, 359.930 301, 360.235 301 C 360.540 301, 365.787 298.043, 371.895 294.430 L 383 287.860 383 275.467 L 383 263.074 371.988 256.537 C 365.931 252.942, 360.418 250.039, 359.738 250.086 C 359.057 250.134, 353.899 252.947, 348.276 256.336" stroke="none" fill="#eff3f5" fill-rule="evenodd"/><path d="M 188.607 16.582 C 188.273 17.452, 188 19.662, 188 21.494 C 188 27.177, 185.253 39.525, 182.400 46.671 C 177.945 57.827, 172.046 66.771, 162.500 76.842 C 148.644 91.460, 136.754 99.841, 103.228 118.624 C 57.183 144.421, 28.054 182.431, 17.873 230 C 16.091 238.323, 15.625 243.713, 15.625 256 C 15.625 273.830, 17.684 285.728, 23.671 302.500 C 28.472 315.951, 28.793 318.527, 26.031 321.467 C 23.563 324.094, 23.443 323.666, 29.706 334.557 C 33.180 340.598, 33.202 340.614, 37.761 340.557 C 42.117 340.503, 42.542 340.759, 46.806 346 C 53.292 353.973, 57.553 358.478, 67.343 367.710 L 76.048 375.920 80.774 373.142 C 83.373 371.614, 88.786 368.448, 92.801 366.108 L 100.103 361.852 93.328 356.723 C 61.411 332.562, 40.671 292.889, 40.671 256 C 40.671 244.009, 42.305 234.322, 46.576 220.992 C 53.121 200.567, 63.747 183.357, 79.569 167.555 C 90.797 156.341, 101.898 148.442, 123.416 136.356 C 143.393 125.134, 154.915 117.504, 166.714 107.684 C 189.105 89.047, 203.486 67.623, 209.799 43.500 C 211.841 35.696, 214 22.296, 214 17.428 L 214 15 201.607 15 C 191.229 15, 189.115 15.257, 188.607 16.582 M 389.728 152.722 C 391.503 152.943, 394.653 152.946, 396.728 152.730 C 398.802 152.513, 397.350 152.333, 393.500 152.328 C 389.650 152.324, 387.952 152.501, 389.728 152.722 M 379.238 203.625 L 368 210.168 368.008 223.334 L 368.016 236.500 378.848 242.750 C 384.806 246.188, 390.049 249, 390.500 249 C 390.951 249, 396.194 246.188, 402.152 242.750 L 412.984 236.500 412.992 223.385 L 413 210.270 405.250 205.758 C 400.988 203.276, 395.919 200.309, 393.988 199.164 L 390.475 197.083 379.238 203.625 M 352.402 221 C 352.402 229.525, 352.556 233.012, 352.743 228.750 C 352.931 224.488, 352.931 217.512, 352.743 213.250 C 352.556 208.988, 352.402 212.475, 352.402 221 M 458.419 275 C 458.419 285.725, 458.566 290.113, 458.746 284.750 C 458.925 279.387, 458.925 270.613, 458.746 265.250 C 458.566 259.887, 458.419 264.275, 458.419 275 M 352.300 320 C 352.300 323.025, 352.487 324.262, 352.716 322.750 C 352.945 321.238, 352.945 318.762, 352.716 317.250 C 352.487 315.738, 352.300 316.975, 352.300 320 M 367.300 320 C 367.300 323.025, 367.487 324.262, 367.716 322.750 C 367.945 321.238, 367.945 318.762, 367.716 317.250 C 367.487 315.738, 367.300 316.975, 367.300 320 M 319.500 329 C 321.648 331.200, 323.631 333, 323.906 333 C 324.181 333, 322.648 331.200, 320.500 329 C 318.352 326.800, 316.369 325, 316.094 325 C 315.819 325, 317.352 326.800, 319.500 329 M 390.768 359.725 C 392.565 359.947, 395.265 359.943, 396.768 359.715 C 398.271 359.486, 396.800 359.304, 393.500 359.310 C 390.200 359.315, 388.971 359.502, 390.768 359.725 M 149.482 396.724 C 147.292 398.222, 142.040 401.512, 137.812 404.036 L 130.124 408.625 139.262 415.063 C 150.576 423.033, 164.342 436.007, 170.848 444.830 C 180.148 457.444, 186.169 472.433, 187.518 486.336 C 188.655 498.045, 187.284 497, 201.519 497 L 214 497 214 494.378 C 214 492.936, 213.296 486.974, 212.436 481.128 C 207.884 450.205, 192.348 424.900, 163.835 401.964 C 158.389 397.584, 153.828 394, 153.699 394 C 153.570 394, 151.672 395.226, 149.482 396.724" stroke="none" fill="#fc8086" fill-rule="evenodd"/><path d="M 15.459 21.250 C 18.462 49.875, 27.018 70.026, 45.073 91.004 C 50.693 97.535, 62.860 108.514, 71.577 114.922 L 75.655 117.919 79.577 115.236 C 81.735 113.760, 86.960 110.488, 91.188 107.964 L 98.876 103.375 90.177 97.235 C 71.330 83.933, 57.083 68.304, 49.537 52.653 C 44.236 41.658, 42.170 34.256, 41.332 23.250 L 40.703 15 27.753 15 L 14.804 15 15.459 21.250 M 141.116 143.707 L 129.732 150.364 132.116 152.243 C 148.079 164.821, 157.862 174.958, 166.750 188.129 C 177.410 203.928, 184.663 222.550, 187.441 241.254 C 189.384 254.346, 189.384 257.654, 187.441 270.746 C 182.788 302.079, 166.316 331.198, 141.601 351.783 C 130.565 360.976, 118.950 368.638, 96.500 381.538 C 75.792 393.437, 63.516 402.455, 50.969 414.983 C 29.388 436.531, 18.634 459.518, 15.523 490.750 L 14.901 497 27.950 497 L 41 497 41 491.958 C 41 480.330, 46.270 463.623, 54.169 450.206 C 58.780 442.376, 78.606 422.753, 89.775 414.966 C 94.876 411.410, 106.576 404.286, 115.775 399.135 C 124.974 393.984, 136.100 387.386, 140.500 384.473 C 177.399 360.046, 202.196 324.339, 211.186 282.688 C 212.951 274.511, 213.386 269.243, 213.386 256 C 213.386 237.208, 211.506 226.092, 205.476 209.222 C 201.434 197.916, 201.234 195.444, 204.112 192.381 L 206.224 190.132 201.805 181.816 L 197.386 173.500 193.271 173.828 C 188.534 174.206, 188.911 174.521, 178.023 161.079 C 171.540 153.075, 154.836 136.953, 153.100 137.025 C 152.770 137.038, 147.377 140.045, 141.116 143.707 M 428.389 223.500 C 428.390 230.650, 428.550 233.444, 428.742 229.708 C 428.935 225.973, 428.934 220.123, 428.739 216.708 C 428.545 213.294, 428.387 216.350, 428.389 223.500 M 496.252 251.500 C 496.263 253.700, 496.468 254.482, 496.707 253.238 C 496.946 251.994, 496.937 250.194, 496.687 249.238 C 496.437 248.282, 496.241 249.300, 496.252 251.500 M 409.266 255.872 L 398.032 262.500 398.063 275.500 L 398.093 288.500 409.450 295.124 L 420.807 301.748 432.154 295.038 L 443.500 288.328 443.500 275.498 L 443.500 262.668 437.500 259.025 C 434.200 257.021, 429.025 254.001, 426 252.313 L 420.500 249.243 409.266 255.872 M 496.252 260.500 C 496.263 262.700, 496.468 263.482, 496.707 262.238 C 496.946 260.994, 496.937 259.194, 496.687 258.238 C 496.437 257.282, 496.241 258.300, 496.252 260.500 M 337.389 275.500 C 337.390 282.650, 337.550 285.444, 337.742 281.708 C 337.935 277.973, 337.934 272.123, 337.739 268.708 C 337.545 265.294, 337.387 268.350, 337.389 275.500 M 469.437 325.250 L 466.500 328.500 469.750 325.563 C 472.779 322.825, 473.460 322, 472.687 322 C 472.515 322, 471.052 323.462, 469.437 325.250 M 461.946 332.750 L 458.500 336.500 462.250 333.054 C 464.313 331.158, 466 329.471, 466 329.304 C 466 328.540, 465.154 329.260, 461.946 332.750" stroke="none" fill="#97e4f9" fill-rule="evenodd"/><path d="M 2 2 C 0.277 3.723, 0 5.333, 0 13.622 C -0 39.013, 7.820 65.407, 21.295 85.500 C 30.405 99.083, 38.690 107.735, 59.270 125.155 L 62.040 127.500 49.770 140 C 34.897 155.152, 26.124 167.281, 17.583 184.500 C 6.075 207.699, 1.158 226.616, 0.298 251 C -0.119 262.818, 0.151 269.050, 1.435 277.233 C 4.032 293.795, 10.084 313.849, 14.445 320.344 C 17.250 324.521, 22.133 325.163, 25.690 321.822 C 28.822 318.880, 28.527 316.041, 23.680 302.500 C 17.689 285.761, 15.625 273.846, 15.625 256 C 15.625 232.055, 20.457 212.638, 32.015 190.138 C 47.264 160.453, 70.857 136.760, 103.228 118.624 C 136.754 99.841, 148.644 91.460, 162.500 76.842 C 172.046 66.771, 177.945 57.827, 182.400 46.671 C 185.253 39.525, 188 27.177, 188 21.494 C 188 14.988, 187.975 15, 201.607 15 L 214 15 214 17.428 C 214 22.296, 211.841 35.696, 209.799 43.500 C 203.486 67.623, 189.105 89.047, 166.714 107.684 C 154.915 117.504, 143.393 125.134, 123.416 136.356 C 101.898 148.442, 90.797 156.341, 79.569 167.555 C 54.982 192.111, 40.671 224.651, 40.671 256 C 40.671 292.889, 61.411 332.562, 93.328 356.723 L 100.103 361.852 92.801 366.108 C 88.786 368.448, 83.373 371.614, 80.774 373.142 L 76.048 375.920 67.343 367.710 C 57.476 358.405, 53.200 353.878, 46.839 346 C 43.174 341.462, 41.781 340.448, 38.871 340.200 C 34.158 339.799, 30.667 342.610, 30.667 346.808 C 30.667 350.969, 38.761 361.471, 51.924 374.388 C 57.466 379.826, 62 384.368, 62 384.481 C 62 384.595, 57.420 388.470, 51.822 393.094 C 18.235 420.833, -0 457.606, 0 497.599 C 0 512.843, -1.613 512, 27.545 512 L 51.091 512 53.545 509.545 C 55.668 507.423, 56.001 506.171, 56.009 500.295 C 56.013 496.558, 56.301 491.137, 56.648 488.250 L 57.279 483 114.639 483 C 146.188 483, 172.034 483.337, 172.076 483.750 C 172.118 484.163, 172.478 489.846, 172.877 496.380 C 173.890 512.972, 172.129 512, 201.177 512 C 214.237 512, 224.920 511.578, 225.961 511.021 C 229.158 509.310, 229.809 505.145, 228.946 491.945 C 226.273 451.104, 209.519 419.423, 176.107 392.028 L 166.994 384.556 177.956 373.528 C 190.736 360.671, 193.092 357.818, 201.667 344.825 C 224.532 310.176, 233.896 267.933, 227.053 230.311 C 224.336 215.374, 217.834 195.685, 214.346 191.830 C 210.616 187.708, 202 191.243, 202 196.894 C 202 198.141, 203.388 203.062, 205.085 207.830 C 213.470 231.393, 215.890 254.876, 212.170 276.583 C 207.244 305.324, 196.022 329.516, 177.134 352.110 C 162.790 369.269, 146.019 382.409, 120.500 396.486 C 93.872 411.175, 80.107 420.951, 67.494 434.133 C 51.175 451.187, 42.842 468.834, 41.265 489.674 L 40.711 497 27.739 497 L 14.767 497 15.471 490.250 C 18.746 458.856, 29.430 436.316, 51.405 414.442 C 63.448 402.455, 74.900 394.056, 95.232 382.298 C 129.206 362.652, 145.158 350.797, 157.445 336.066 C 174.879 315.163, 185.040 291.875, 188.060 265.900 C 190.775 242.551, 183.117 213.540, 168.117 190.345 C 158.806 175.947, 148.918 165.482, 132.113 152.240 L 129.725 150.359 141.393 143.584 L 153.060 136.808 156.524 139.450 C 162.403 143.935, 176.266 158.165, 181.414 165 C 187.446 173.009, 188.638 174, 192.237 174 C 195.788 174, 200 169.992, 200 166.611 C 200 163.045, 190.868 151.347, 178.025 138.460 L 167.023 127.421 176.122 119.960 C 209.292 92.763, 226.289 60.878, 228.892 20.971 C 229.814 6.831, 229.211 2.718, 225.961 0.979 C 224.920 0.422, 214.237 0, 201.177 0 C 172.129 0, 173.890 -0.972, 172.877 15.620 C 172.478 22.154, 172.118 27.837, 172.076 28.250 C 172.034 28.663, 146.188 29, 114.639 29 L 57.279 29 56.648 23.750 C 56.301 20.862, 56.013 15.442, 56.009 11.705 C 56.001 5.829, 55.668 4.577, 53.545 2.455 L 51.091 0 27.545 0 C 5.333 0, 3.887 0.113, 2 2 M 15.471 21.750 C 18.414 49.964, 26.587 69.324, 44.334 90.119 C 50.460 97.297, 62.444 108.208, 71.577 114.922 L 75.655 117.919 79.577 115.236 C 81.735 113.760, 86.960 110.488, 91.188 107.964 L 98.876 103.375 90.010 97.117 C 72.541 84.787, 58.090 69.332, 50.631 55 C 45.009 44.199, 41 29.345, 41 19.316 L 41 15 27.884 15 L 14.767 15 15.471 21.750 M 63 45.872 C 63 47.926, 73.257 62.206, 78.639 67.645 C 86.287 75.373, 91.728 79.716, 104.126 87.989 L 114.313 94.787 120.821 90.804 C 135.295 81.944, 148.463 70.972, 156.025 61.469 C 160.782 55.490, 165.963 47.317, 165.988 45.750 C 165.995 45.337, 142.825 45, 114.500 45 C 85.887 45, 63 45.387, 63 45.872 M 376.520 138.115 C 366.859 139.522, 355.623 142.745, 346.250 146.797 C 336.365 151.072, 321.446 160.298, 319.975 163.047 C 318.443 165.909, 318.832 170.539, 320.750 172.267 C 324.668 175.798, 327.052 175.366, 336.383 169.440 C 378.299 142.816, 429.760 147.619, 464.838 181.428 C 498.822 214.183, 506.664 263.103, 484.584 304.609 C 461.869 347.308, 412.515 368.647, 365.877 355.932 C 361.820 354.826, 353.550 351.502, 347.500 348.547 C 318.043 334.155, 297.688 307.305, 291.497 274.673 C 290.658 270.247, 289.278 265.860, 288.431 264.924 C 287.584 263.988, 283.541 261.762, 279.446 259.976 C 275.351 258.191, 272 256.401, 272 256 C 272 255.599, 275.351 253.809, 279.446 252.024 C 283.541 250.238, 287.584 248.012, 288.431 247.076 C 289.278 246.140, 290.679 241.639, 291.546 237.073 C 293.680 225.822, 298.109 213.971, 304.052 203.605 C 306.774 198.859, 309 193.836, 309 192.443 C 309 191.049, 307.845 188.754, 306.434 187.343 C 303.204 184.114, 298.578 184.696, 295.236 188.752 C 289.222 196.050, 279.793 218.041, 277.086 231.082 L 275.928 236.664 262.056 243.402 C 250.612 248.961, 247.972 250.653, 246.971 253.070 C 246.019 255.367, 246.019 256.633, 246.971 258.930 C 247.971 261.345, 250.601 263.034, 261.944 268.544 L 275.704 275.227 278.318 285.790 C 286.417 318.523, 311.367 348.725, 342.464 363.442 C 409.887 395.349, 489.085 358.126, 508.735 285.294 C 511.167 276.282, 511.378 273.943, 511.378 256 C 511.378 238.057, 511.167 235.718, 508.735 226.706 C 496.109 179.906, 458.053 145.537, 411.004 138.445 C 400.648 136.883, 385.941 136.743, 376.520 138.115 M 105.926 165.133 C 89.048 177.414, 75.085 194.108, 66.456 212.324 C 62.358 220.975, 57.896 235.514, 56.657 244.250 L 56.126 248 114.544 248 L 172.962 248 172.342 243.250 C 171.482 236.656, 167.381 222.630, 164.301 215.750 L 161.727 210 130.863 210 C 101.333 210, 99.914 209.914, 98 208 C 96.762 206.762, 96 204.667, 96 202.500 C 96 200.333, 96.762 198.238, 98 197 C 99.897 195.103, 101.333 195, 126 195 C 140.300 195, 152 194.619, 152 194.153 C 152 192.579, 139.403 178.537, 133.430 173.453 C 126.727 167.748, 120.719 163.088, 116.926 160.653 C 114.389 159.024, 114.234 159.088, 105.926 165.133 M 371.944 190.613 C 362.900 195.900, 355.050 200.646, 354.500 201.159 C 353.949 201.674, 353.275 209.792, 353 219.223 L 352.500 236.353 338.500 244.569 C 330.369 249.340, 323.982 253.772, 323.265 255.142 C 321.506 258.500, 321.585 292.624, 323.359 295.821 C 324.067 297.098, 330.914 301.833, 338.573 306.344 L 352.500 314.545 352.807 320.519 C 353.166 327.493, 355.631 331, 360.174 331 C 364.885 331, 367 327.912, 367 321.037 L 367 315.074 378.250 308.381 C 384.438 304.700, 389.950 301.687, 390.500 301.685 C 391.050 301.683, 397.287 305.132, 404.361 309.349 C 411.434 313.567, 418.294 317.287, 419.605 317.616 C 421.427 318.073, 425.772 316.015, 438.054 308.875 C 446.890 303.739, 454.993 298.724, 456.060 297.730 C 457.857 296.055, 457.999 294.437, 457.985 275.711 C 457.976 264.595, 457.583 254.891, 457.112 254.146 C 456.640 253.402, 450.009 249.084, 442.377 244.551 L 428.500 236.309 428.500 223.419 L 428.500 210.529 434.977 207.013 C 442.510 202.923, 444.437 199.650, 441.936 195.195 C 439.299 190.497, 435.871 190.141, 428.456 193.798 C 424.884 195.559, 421.408 196.993, 420.731 196.985 C 420.054 196.976, 413.454 193.376, 406.064 188.985 C 398.674 184.593, 391.674 181, 390.508 181 C 389.343 181, 380.989 185.326, 371.944 190.613 M 379.238 203.625 L 368 210.168 368.008 223.334 L 368.016 236.500 378.848 242.750 C 384.806 246.188, 390.049 249, 390.500 249 C 390.951 249, 396.194 246.188, 402.152 242.750 L 412.984 236.500 412.992 223.385 L 413 210.270 405.250 205.758 C 400.988 203.276, 395.919 200.309, 393.988 199.164 L 390.475 197.083 379.238 203.625 M 348.244 255.844 L 336.987 262.500 337.244 275.433 L 337.500 288.366 348.719 295.135 L 359.938 301.905 371.452 295.202 L 382.967 288.500 382.980 275.500 L 382.994 262.500 371.535 255.750 C 365.232 252.037, 359.946 249.042, 359.788 249.094 C 359.629 249.145, 354.435 252.183, 348.244 255.844 M 409.277 255.822 L 398.055 262.500 398.044 275.500 L 398.033 288.500 409.417 295.126 L 420.801 301.752 432.151 295.040 L 443.500 288.328 443.500 275.498 L 443.500 262.668 437.181 258.804 C 433.705 256.678, 428.530 253.635, 425.681 252.041 L 420.500 249.144 409.277 255.822 M 56.671 267.750 C 57.747 275.151, 61.215 287.631, 64.174 294.750 L 67.187 302 97.512 302 C 114.190 302, 128.598 302.292, 129.529 302.650 C 133.981 304.358, 134.282 313.708, 129.961 316.021 C 128.904 316.586, 117.330 317, 102.566 317 C 88.505 317, 77 317.287, 77 317.639 C 77 317.990, 79.565 321.412, 82.699 325.243 C 89.072 333.033, 99.875 342.804, 108.868 348.910 L 114.833 352.961 121.166 348.329 C 150.213 327.084, 167.527 300.009, 172.375 268.250 L 173.024 264 114.575 264 L 56.126 264 56.671 267.750 M 149.482 396.724 C 147.292 398.222, 142.040 401.512, 137.812 404.036 L 130.124 408.625 139.262 415.063 C 150.576 423.033, 164.342 436.007, 170.848 444.830 C 180.148 457.444, 186.169 472.433, 187.518 486.336 C 188.655 498.045, 187.284 497, 201.519 497 L 214 497 214 494.378 C 214 492.936, 213.296 486.974, 212.436 481.128 C 207.884 450.205, 192.348 424.900, 163.835 401.964 C 158.389 397.584, 153.828 394, 153.699 394 C 153.570 394, 151.672 395.226, 149.482 396.724 M 104.144 423.999 C 91.728 432.284, 86.290 436.625, 78.639 444.355 C 73.257 449.794, 63 464.074, 63 466.128 C 63 466.613, 85.887 467, 114.500 467 C 142.825 467, 166 466.757, 166 466.460 C 166 464.747, 161.297 457.246, 156.204 450.838 C 148.705 441.401, 135.701 430.510, 120.924 421.292 L 114.349 417.189 104.144 423.999" stroke="none" fill="#050505" fill-rule="evenodd"/></svg>