<?xml version="1.0" standalone="no"?>
<!DOCTYPE svg PUBLIC "-//W3C//DTD SVG 20010904//EN"
 "http://www.w3.org/TR/2001/REC-SVG-20010904/DTD/svg10.dtd">
<svg version="1.0" xmlns="http://www.w3.org/2000/svg"
 width="512.000000pt" height="512.000000pt" viewBox="0 0 512.000000 512.000000"
 preserveAspectRatio="xMidYMid meet">

<g transform="translate(0.000000,512.000000) scale(0.100000,-0.100000)"
fill="#000000" stroke="none">
<path d="M306 4279 c-62 -15 -153 -68 -197 -116 -22 -24 -55 -74 -72 -111
l-32 -67 0 -1426 0 -1425 37 -76 c45 -91 103 -147 196 -191 l67 -32 2256 0
2255 0 76 37 c91 45 147 103 191 196 l32 67 0 1425 0 1425 -32 67 c-44 93
-100 151 -191 196 l-76 37 -1505 3 c-1043 2 -1514 -1 -1532 -8 -14 -6 -33 -24
-42 -39 -26 -45 -21 -79 17 -117 l34 -34 1473 0 1474 0 -140 -140 -140 -140
-668 0 -669 0 -34 -34 c-46 -46 -46 -86 0 -132 l34 -34 569 0 568 0 -725 -724
c-791 -789 -763 -765 -904 -788 -48 -8 -84 -8 -132 0 -143 24 -90 -24 -1144
1028 l-965 964 283 0 c307 0 327 3 350 55 23 51 7 107 -39 131 -23 11 -87 14
-331 13 -167 -1 -320 -5 -342 -10z m611 -1001 l693 -693 -697 -697 c-384 -384
-701 -698 -705 -698 -9 0 -11 2704 -2 2749 4 17 9 31 13 31 3 0 318 -312 698
-692z m4001 -708 c1 -759 -1 -1380 -5 -1380 -5 0 -322 314 -705 697 l-698 698
692 692 c474 474 696 689 703 682 7 -7 11 -463 13 -1389z m-2677 -593 c25 -14
82 -39 125 -54 68 -23 95 -27 194 -27 99 0 126 4 194 27 43 15 100 40 125 54
25 15 145 125 266 245 l221 218 697 -698 c383 -383 697 -700 697 -705 0 -4
-990 -7 -2200 -7 -1210 0 -2200 3 -2200 7 0 5 314 322 697 705 l697 698 221
-218 c121 -120 241 -230 266 -245z"/>
<path d="M1309 4262 c-26 -24 -32 -36 -32 -72 0 -37 5 -48 33 -73 95 -85 221
54 131 144 -40 39 -89 40 -132 1z"/>
<path d="M2665 3777 c-47 -47 -48 -86 -1 -133 38 -38 70 -43 116 -19 36 19 50
43 50 89 0 49 -34 86 -87 93 -39 5 -46 2 -78 -30z"/>
</g>
</svg>
