<?xml version="1.0" encoding="UTF-8"?>
<!DOCTYPE svg PUBLIC "-//W3C//DTD SVG 1.1//EN" "http://www.w3.org/Graphics/SVG/1.1/DTD/svg11.dtd">
<svg xmlns="http://www.w3.org/2000/svg" version="1.1" width="512px" height="512px" style="shape-rendering:geometricPrecision; text-rendering:geometricPrecision; image-rendering:optimizeQuality; fill-rule:evenodd; clip-rule:evenodd" xmlns:xlink="http://www.w3.org/1999/xlink">
<g><path style="opacity:0.977" fill="#000000" d="M 238.5,5.5 C 340.832,3.17593 418.665,45.1759 472,131.5C 507.374,197.948 513.374,266.948 490,338.5C 472.092,377.548 441.592,395.048 398.5,391C 370.058,386.048 349.058,370.881 335.5,345.5C 301.692,373.698 263.358,382.198 220.5,371C 180.759,357.593 153.926,331.093 140,291.5C 126.713,240.464 139.547,197.298 178.5,162C 216.125,133.787 257.125,127.787 301.5,144C 310.569,147.948 319.069,152.781 327,158.5C 329.954,140.557 340.454,133.057 358.5,136C 366.667,138.833 372.167,144.333 375,152.5C 375.034,206.858 375.701,261.191 377,315.5C 382.401,332.56 394.068,341.893 412,343.5C 430.948,340.889 442.615,330.222 447,311.5C 466.066,237.126 449.733,171.793 398,115.5C 341.449,61.994 275.282,44.8274 199.5,64C 135.142,85.0248 90.9753,127.191 67,190.5C 44.8183,262.768 57.485,328.102 105,386.5C 154.879,440.463 216.379,462.297 289.5,452C 315.91,447.123 340.576,437.789 363.5,424C 382.372,420.917 393.039,428.75 395.5,447.5C 394.644,460.033 388.311,468.533 376.5,473C 314.568,505.881 249.901,512.548 182.5,493C 99.1709,465.004 44.0042,409.171 17,325.5C -5.87965,239.891 10.1203,162.558 65,93.5C 111.071,41.2138 168.905,11.8804 238.5,5.5 Z M 255.5,183.5 C 289.661,185.989 312.495,203.323 324,235.5C 331.985,272.912 319.485,301.079 286.5,320C 253.285,333.289 224.452,326.789 200,300.5C 182.385,276.146 179.718,250.146 192,222.5C 206.25,198.13 227.417,185.13 255.5,183.5 Z"/></g>
</svg>
